<?xml version="1.0" standalone="no"?>
<!DOCTYPE svg PUBLIC "-//W3C//DTD SVG 20010904//EN"
 "http://www.w3.org/TR/2001/REC-SVG-20010904/DTD/svg10.dtd">
<svg version="1.0" xmlns="http://www.w3.org/2000/svg"
 width="920.000000pt" height="672.000000pt" viewBox="0 0 920.000000 672.000000"
 preserveAspectRatio="xMidYMid meet">

<g transform="translate(0.000000,672.000000) scale(0.100000,-0.100000)"
fill="#000000" stroke="none">
<path d="M4390 6714 c-890 -64 -1662 -430 -2264 -1074 -479 -512 -789 -1183
-871 -1889 -20 -171 -20 -603 0 -776 88 -756 417 -1435 955 -1976 533 -535
1169 -851 1945 -966 94 -14 186 -18 430 -18 332 0 417 8 685 62 1342 270 2400
1364 2629 2718 36 212 46 335 45 575 0 260 -16 416 -65 661 -166 829 -643
1563 -1342 2064 -454 326 -1001 536 -1558 600 -133 15 -483 26 -589 19z m635
-73 c229 -32 377 -66 585 -133 1143 -368 2002 -1339 2229 -2518 44 -227 55
-346 55 -615 1 -318 -19 -503 -84 -780 -225 -951 -872 -1761 -1755 -2195 -429
-211 -821 -314 -1297 -339 -575 -31 -1141 88 -1658 350 -711 359 -1270 960
-1570 1690 -171 417 -245 796 -245 1264 0 253 9 362 46 575 142 813 600 1560
1267 2063 493 372 1078 596 1712 657 153 14 554 4 715 -19z"/>
<path d="M4246 6510 c-83 -3 -121 -9 -124 -17 -2 -8 6 -13 21 -13 13 0 39 -3
56 -6 l31 -6 0 -254 0 -254 -55 0 c-42 0 -55 -3 -55 -15 0 -13 27 -15 180 -15
153 0 180 2 180 15 0 12 -13 15 -55 15 l-55 0 -2 278 -3 277 -119 -5z"/>
<path d="M4799 6510 c-115 -19 -182 -100 -149 -179 15 -37 59 -57 89 -42 45
25 33 109 -17 121 -33 7 -31 22 8 48 51 34 96 30 137 -15 34 -36 35 -38 31
-107 -5 -96 -35 -138 -172 -241 -106 -80 -106 -80 -106 -122 l0 -43 210 0
c116 0 210 3 211 8 0 4 4 47 7 95 7 84 6 88 -13 85 -13 -2 -21 -12 -23 -30 -5
-45 -20 -49 -158 -46 l-129 3 79 50 c202 129 250 179 250 265 0 109 -110 173
-255 150z"/>
<path d="M5903 6153 c-65 -3 -83 -7 -83 -18 0 -11 12 -15 43 -15 24 0 48 -5
55 -12 9 -9 12 -80 12 -260 l0 -248 -55 0 c-42 0 -55 -3 -55 -15 0 -13 26 -15
175 -15 149 0 175 2 175 15 0 12 -13 15 -55 15 l-55 0 0 280 0 280 -37 -2
c-21 -1 -75 -4 -120 -5z"/>
<path d="M2828 5993 c-89 -3 -98 -6 -98 -23 0 -16 9 -19 53 -22 l52 -3 3 -252
2 -253 -55 0 c-42 0 -55 -3 -55 -15 0 -13 27 -15 180 -15 153 0 180 2 180 15
0 12 -13 15 -55 15 l-55 0 0 280 0 280 -27 -2 c-16 -1 -72 -4 -125 -5z"/>
<path d="M3373 5993 c-85 -3 -93 -6 -93 -23 0 -17 7 -20 49 -20 35 0 51 -4 55
-16 3 -9 6 -123 6 -255 l0 -239 -55 0 c-42 0 -55 -3 -55 -15 0 -13 27 -15 180
-15 153 0 180 2 180 15 0 12 -13 15 -55 15 l-55 0 0 280 0 280 -32 -2 c-18 -1
-75 -4 -125 -5z"/>
<path d="M1844 5028 c-10 -15 4 -22 54 -26 26 -2 50 -9 54 -15 4 -7 8 -121 8
-254 l0 -243 -54 0 c-39 0 -55 -4 -60 -15 -5 -13 19 -15 174 -15 153 0 180 2
180 15 0 12 -13 15 -55 15 l-55 0 0 276 0 275 -120 -2 c-67 -1 -123 -6 -126
-11z"/>
<path d="M2485 5024 c-76 -41 -126 -117 -144 -220 -21 -117 33 -260 122 -320
36 -25 52 -29 108 -29 55 0 72 4 108 28 46 30 95 100 111 157 15 52 12 159 -5
217 -18 59 -60 121 -106 154 -43 31 -149 38 -194 13z m134 -33 c29 -29 33 -65
29 -278 -3 -211 -5 -217 -64 -229 -24 -4 -37 0 -60 19 l-29 25 -3 216 -3 216
25 25 c31 30 78 33 105 6z"/>
<path d="M6955 5021 c-55 -25 -86 -62 -92 -109 -6 -47 16 -87 53 -96 78 -20
103 89 27 120 -33 14 -34 16 -18 34 46 51 126 50 170 -2 25 -29 27 -38 23
-104 -5 -97 -32 -135 -171 -239 -106 -80 -107 -80 -107 -122 l0 -43 210 0
c242 0 217 -13 222 118 3 64 2 72 -14 72 -12 0 -20 -10 -24 -30 -4 -16 -12
-34 -19 -40 -8 -7 -62 -10 -141 -8 l-129 3 110 70 c133 84 199 147 215 203 19
72 -12 137 -80 172 -53 27 -178 27 -235 1z"/>
<path d="M7354 3856 c-38 -17 -74 -61 -74 -91 0 -29 40 -65 72 -65 48 0 79 70
43 100 -8 7 -15 16 -15 20 0 14 48 20 74 10 50 -19 57 -134 11 -188 -18 -20
-35 -27 -76 -32 -39 -3 -54 -9 -54 -20 0 -11 16 -16 60 -20 100 -8 135 -44
135 -136 0 -55 -20 -96 -55 -112 -31 -14 -104 -16 -125 -2 -12 8 -11 13 8 33
12 13 22 33 22 44 0 22 -43 63 -65 63 -7 0 -24 -9 -39 -21 -39 -31 -36 -78 8
-117 91 -80 306 -53 373 47 27 41 31 110 7 146 -21 32 -71 63 -120 73 l-39 8
45 21 c59 27 91 62 96 110 6 47 -21 95 -68 119 -44 23 -182 30 -224 10z"/>
<path d="M1697 3729 c-75 -18 -135 -65 -156 -122 -17 -44 -13 -118 8 -157 27
-53 101 -94 166 -94 32 0 62 6 78 17 15 9 29 17 32 17 12 0 3 -38 -19 -87 -29
-62 -84 -106 -156 -124 -31 -8 -50 -18 -50 -27 0 -11 10 -13 47 -7 210 31 354
185 341 364 -6 75 -22 113 -70 160 -55 56 -143 80 -221 60z m114 -48 c22 -18
24 -28 27 -123 4 -101 3 -106 -23 -136 -32 -39 -83 -44 -115 -12 -18 18 -20
33 -20 129 0 94 3 112 21 135 25 32 75 35 110 7z"/>
<path d="M7175 2369 c-106 -135 -215 -293 -215 -313 0 -14 17 -16 120 -16
l120 0 0 -65 0 -65 -35 0 c-24 0 -35 -5 -35 -15 0 -13 22 -15 140 -15 118 0
140 2 140 15 0 10 -11 15 -35 15 l-35 0 0 66 0 65 38 -3 c32 -3 37 -7 40 -30
2 -16 9 -28 18 -28 11 0 14 17 14 80 0 63 -3 80 -14 80 -9 0 -16 -12 -18 -32
-3 -30 -6 -33 -40 -36 l-38 -3 0 200 0 201 -43 0 c-42 0 -44 -1 -122 -101z
m25 -159 l0 -140 -101 0 c-55 0 -99 4 -97 9 4 10 192 270 196 271 1 0 2 -63 2
-140z"/>
<path d="M2068 2391 c-149 -48 -169 -203 -34 -261 l41 -17 -53 -23 c-29 -12
-64 -36 -78 -53 -23 -27 -26 -38 -22 -84 8 -99 84 -146 233 -146 146 0 224 47
232 140 6 66 -19 103 -93 139 l-57 28 40 17 c113 48 121 174 15 236 -36 21
-60 27 -121 29 -42 2 -88 -1 -103 -5z m134 -49 c8 -9 13 -44 13 -93 0 -62 -4
-82 -19 -98 -23 -26 -58 -27 -79 -3 -19 21 -30 114 -19 162 12 54 71 73 104
32z m-7 -258 c28 -11 45 -60 45 -133 0 -86 -19 -111 -85 -111 -64 0 -78 16
-83 94 -5 78 2 110 28 136 20 20 63 26 95 14z"/>
<path d="M6380 1416 c0 -22 -24 -26 -159 -26 l-128 0 -7 -61 c-9 -92 -7 -217
4 -224 5 -3 32 2 59 11 49 15 52 15 94 -5 24 -12 49 -33 55 -46 33 -72 21
-168 -25 -204 -27 -22 -105 -29 -133 -11 -12 7 -12 12 4 28 26 30 18 83 -16
100 -52 24 -99 -19 -89 -83 8 -54 81 -89 181 -89 146 1 250 77 250 184 0 121
-144 195 -310 159 -28 -6 -53 -9 -55 -7 -2 1 -1 33 2 71 l6 67 132 0 c156 0
165 5 173 95 4 51 3 55 -17 55 -11 0 -21 -6 -21 -14z"/>
<path d="M2880 1329 c-27 -75 -30 -93 -19 -100 22 -14 27 -11 34 21 11 52 35
60 172 60 77 0 123 -4 123 -10 0 -6 -42 -77 -94 -158 -51 -81 -98 -157 -105
-169 -16 -32 -14 -99 5 -117 37 -38 108 -29 134 17 13 24 13 32 -3 76 -32 92
-18 146 89 322 94 157 101 149 -120 149 l-183 0 -33 -91z"/>
<path d="M4750 806 c-123 -35 -233 -129 -266 -228 -36 -108 -14 -217 56 -285
54 -53 93 -66 176 -61 84 6 132 31 181 94 24 32 28 47 28 100 0 55 -4 67 -31
101 -17 21 -46 47 -63 57 -46 26 -129 25 -175 -2 l-36 -21 6 27 c25 108 93
180 187 197 22 4 37 13 37 21 0 17 -38 17 -100 0z m6 -257 c16 -18 19 -37 19
-136 0 -110 -1 -116 -25 -135 -18 -15 -33 -18 -60 -14 -59 9 -70 33 -70 153 0
97 2 106 25 128 31 32 84 34 111 4z"/>
</g>
</svg>
