<?xml version="1.0" encoding="iso-8859-1"?>
<!-- Uploaded to: SVG Repo, www.svgrepo.com, Generator: SVG Repo Mixer Tools -->
<!DOCTYPE svg PUBLIC "-//W3C//DTD SVG 1.1//EN" "http://www.w3.org/Graphics/SVG/1.1/DTD/svg11.dtd">
<svg fill="#000000" version="1.1" id="Capa_1" xmlns="http://www.w3.org/2000/svg" xmlns:xlink="http://www.w3.org/1999/xlink" 
	 width="800px" height="800px" viewBox="0 0 474.941 474.942"
	 xml:space="preserve">
<g>
	<g id="dig-clock">
		<path d="M438.783,73.754h-73.525V49.417c0-7.05-5.736-12.786-12.785-12.786H122.47c-7.05,0-12.785,5.736-12.785,12.786v24.337
			H36.159C16.221,73.754,0,89.976,0,109.914v254.808c0,19.938,16.221,36.158,36.159,36.158h7.089
			c-2.551,3.823-4.042,8.412-4.042,13.343c0,13.282,10.811,24.088,24.098,24.088c13.285,0,24.092-10.806,24.092-24.088
			c0-4.932-1.491-9.52-4.042-13.343h308.244c-2.549,3.823-4.041,8.412-4.041,13.343c0,13.282,10.807,24.088,24.088,24.088
			c13.283,0,24.09-10.806,24.09-24.088c0-4.932-1.49-9.52-4.041-13.343h7.09c19.938,0,36.158-16.221,36.158-36.158V109.915
			C474.941,89.976,458.721,73.754,438.783,73.754z M63.304,426.312c-6.671,0-12.098-5.423-12.098-12.089
			c0-6.673,5.427-12.102,12.098-12.102c6.667,0,12.092,5.429,12.092,12.102C75.396,420.888,69.971,426.312,63.304,426.312z
			 M411.646,426.312c-6.666,0-12.088-5.423-12.088-12.089c0-6.673,5.422-12.102,12.088-12.102s12.09,5.429,12.09,12.102
			C423.736,420.888,418.312,426.312,411.646,426.312z M121.685,49.417c0-0.419,0.367-0.786,0.785-0.786h230
			c0.418,0,0.785,0.367,0.785,0.786v24.337H121.685V49.417z M462.941,364.721c0,13.32-10.838,24.158-24.158,24.158H36.159
			C22.838,388.879,12,378.042,12,364.721V109.915c0-13.321,10.838-24.159,24.159-24.159h402.624
			c13.32,0,24.158,10.838,24.158,24.159V364.721z"/>
		<path d="M109.283,184.543H67.966c-8.05,0-14.599,6.549-14.599,14.599v82.856c0,8.05,6.549,14.6,14.599,14.6h41.318
			c8.05,0,14.599-6.55,14.599-14.6v-82.856C123.882,191.092,117.333,184.543,109.283,184.543z M111.882,281.999
			c0,1.409-1.19,2.6-2.599,2.6H67.966c-1.409,0-2.599-1.19-2.599-2.6v-82.856c0-1.409,1.19-2.599,2.599-2.599h41.318
			c1.409,0,2.599,1.19,2.599,2.599L111.882,281.999L111.882,281.999z"/>
		<path d="M191.606,188.843h-41.318c-3.313,0-6,2.688-6,6c0,3.313,2.687,6,6,6h41.318c1.409,0,2.599,1.19,2.599,2.599v82.855
			c0,3.312,2.687,6,6,6s6-2.688,6-6v-82.855C206.204,195.394,199.656,188.843,191.606,188.843z"/>
		<path d="M325.428,184.543H284.11c-8.05,0-14.599,6.549-14.599,14.599v82.856c0,8.05,6.549,14.6,14.599,14.6h41.317
			c8.051,0,14.6-6.55,14.6-14.6v-82.856C340.027,191.092,333.479,184.543,325.428,184.543z M328.027,281.999
			c0,1.409-1.189,2.6-2.6,2.6H284.11c-1.409,0-2.599-1.19-2.599-2.6v-82.856c0-1.409,1.189-2.599,2.599-2.599h41.317
			c1.41,0,2.6,1.19,2.6,2.599V281.999z"/>
		<path d="M407.75,184.543h-41.318c-8.049,0-14.598,6.549-14.598,14.599v82.856c0,8.05,6.549,14.6,14.598,14.6h41.318
			c8.051,0,14.6-6.55,14.6-14.6v-82.856C422.35,191.092,415.801,184.543,407.75,184.543z M410.35,281.999c0,1.409-1.189,2.6-2.6,2.6
			h-41.318c-1.408,0-2.598-1.19-2.598-2.6v-82.856c0-1.409,1.189-2.599,2.598-2.599h41.318c1.41,0,2.6,1.19,2.6,2.599V281.999z"/>
		<path d="M237.471,198.913c-15.83,0-15.83,24.547,0,24.547C253.301,223.459,253.301,198.913,237.471,198.913z"/>
		<path d="M237.471,257.682c-15.83,0-15.83,24.547,0,24.547C253.301,282.229,253.301,257.682,237.471,257.682z"/>
	</g>
</g>
</svg>